<svg fill="none" xmlns="http://www.w3.org/2000/svg">
  <symbol viewBox="0 0 24 24" id="users">
    <path d="M12.3,12.22A4.92,4.92,0,0,0,14,8.5a5,5,0,0,0-10,0,4.92,4.92,0,0,0,1.7,3.72A8,8,0,0,0,1,19.5a1,1,0,0,0,2,0,6,6,0,0,1,12,0,1,1,0,0,0,2,0A8,8,0,0,0,12.3,12.22ZM9,11.5a3,3,0,1,1,3-3A3,3,0,0,1,9,11.5Zm9.74.32A5,5,0,0,0,15,3.5a1,1,0,0,0,0,2,3,3,0,0,1,3,3,3,3,0,0,1-1.5,2.59,1,1,0,0,0-.5.84,1,1,0,0,0,.45.86l.39.26.13.07a7,7,0,0,1,4,6.38,1,1,0,0,0,2,0A9,9,0,0,0,18.74,11.82Z"></path>
  </symbol>
  <symbol viewBox="0 0 17 17" id="list">
    <path d="M4 1V7H1V1H4ZM5 0H0V8H5V0Z"/>
    <path d="M10 1V7H7V1H10ZM11 0H6V8H11V0Z"/>
    <path d="M16 1V7H13V1H16ZM17 0H12V8H17V0Z"/>
    <path d="M4 10V16H1V10H4ZM5 9H0V17H5V9Z"/>
    <path d="M10 10V16H7V10H10ZM11 9H6V17H11V9Z"/>
    <path d="M16 10V16H13V10H16ZM17 9H12V17H17V9Z"/>
  </symbol>
  <symbol viewBox="0 0 32 32" id="pass">
    <path
      d="M 16 3 C 12.144531 3 9 6.144531 9 10 L 9 13 L 6 13 L 6 29 L 26 29 L 26 13 L 23 13 L 23 10 C 23 6.144531 19.855469 3 16 3 Z M 16 5 C 18.773438 5 21 7.226563 21 10 L 21 13 L 11 13 L 11 10 C 11 7.226563 13.226563 5 16 5 Z M 8 15 L 24 15 L 24 27 L 8 27 Z M 12 20 C 11.449219 20 11 20.449219 11 21 C 11 21.550781 11.449219 22 12 22 C 12.550781 22 13 21.550781 13 21 C 13 20.449219 12.550781 20 12 20 Z M 16 20 C 15.449219 20 15 20.449219 15 21 C 15 21.550781 15.449219 22 16 22 C 16.550781 22 17 21.550781 17 21 C 17 20.449219 16.550781 20 16 20 Z M 20 20 C 19.449219 20 19 20.449219 19 21 C 19 21.550781 19.449219 22 20 22 C 20.550781 22 21 21.550781 21 21 C 21 20.449219 20.550781 20 20 20 Z"
    />
  </symbol>
  <symbol viewBox="0 0 384.971 384.971" id="logout">
    <path d="M180.455,360.91H24.061V24.061h156.394c6.641,0,12.03-5.39,12.03-12.03s-5.39-12.03-12.03-12.03H12.03
			C5.39,0.001,0,5.39,0,12.031V372.94c0,6.641,5.39,12.03,12.03,12.03h168.424c6.641,0,12.03-5.39,12.03-12.03
			C192.485,366.299,187.095,360.91,180.455,360.91z"/>
		<path d="M381.481,184.088l-83.009-84.2c-4.704-4.752-12.319-4.74-17.011,0c-4.704,4.74-4.704,12.439,0,17.179l62.558,63.46H96.279
			c-6.641,0-12.03,5.438-12.03,12.151c0,6.713,5.39,12.151,12.03,12.151h247.74l-62.558,63.46c-4.704,4.752-4.704,12.439,0,17.179
			c4.704,4.752,12.319,4.752,17.011,0l82.997-84.2C386.113,196.588,386.161,188.756,381.481,184.088z"/>
  </symbol>
</svg>